<svg id="Layer_1" data-name="Layer 1" xmlns="http://www.w3.org/2000/svg" viewBox="0 0 285.47 345.4"><title>fira-how-uwb-works-09092019</title><line x1="65.82" y1="279.03" x2="65.82" y2="97.71" fill="none" stroke="#5c5e63" stroke-miterlimit="10" stroke-width="2"/><line x1="231.54" y1="279.03" x2="231.54" y2="97.71" fill="none" stroke="#5c5e63" stroke-miterlimit="10" stroke-width="2"/><path d="M42,14.8H39.7V3.42H42Z" transform="translate(-0.64 -2.61)"/><path d="M46.06,6.34l.1,1.21a3.07,3.07,0,0,1,1-1,2.61,2.61,0,0,1,1.36-.36,2.53,2.53,0,0,1,2,.8,3.78,3.78,0,0,1,.71,2.53V14.8H49V9.51a1.77,1.77,0,0,0-.34-1.21,1.35,1.35,0,0,0-1-.35,1.74,1.74,0,0,0-.8.18,1.64,1.64,0,0,0-.59.52V14.8H44V6.34Z" transform="translate(-0.64 -2.61)"/><path d="M55.28,4.32H53V2.61h2.25Zm0,10.48H53V6.34h2.25Z" transform="translate(-0.64 -2.61)"/><path d="M59.81,4.27V6.34h1.4V8h-1.4v4.3a1,1,0,0,0,.2.7.7.7,0,0,0,.54.21,1.32,1.32,0,0,0,.3,0l.3-.06.19,1.65a6.43,6.43,0,0,1-.66.17A3.88,3.88,0,0,1,60,15a2.37,2.37,0,0,1-1.8-.65,2.84,2.84,0,0,1-.62-2.05V8H56.34V6.34h1.22V4.27Z" transform="translate(-0.64 -2.61)"/><path d="M65,4.32H62.76V2.61H65ZM65,14.8H62.76V6.34H65Z" transform="translate(-0.64 -2.61)"/><path d="M71.75,14.8a6.26,6.26,0,0,1-.21-.61,3.65,3.65,0,0,1-.12-.66,3.22,3.22,0,0,1-.92,1,2.19,2.19,0,0,1-1.35.41,2.82,2.82,0,0,1-2-.68,2.49,2.49,0,0,1-.71-1.87,2.24,2.24,0,0,1,1-1.92,4.61,4.61,0,0,1,2.75-.69h1.26V9.13a1.32,1.32,0,0,0-.32-.94,1.19,1.19,0,0,0-.93-.34,1.22,1.22,0,0,0-.85.27,1,1,0,0,0-.29.75H66.81v0A2.14,2.14,0,0,1,67.72,7a4,4,0,0,1,2.56-.78A3.64,3.64,0,0,1,72.7,7a2.65,2.65,0,0,1,.94,2.19v3.49a7.87,7.87,0,0,0,.08,1.12,5.77,5.77,0,0,0,.29,1Zm-2-1.53a1.89,1.89,0,0,0,1-.29,1.57,1.57,0,0,0,.63-.69v-1.2H70.12a1.51,1.51,0,0,0-1.09.37,1.2,1.2,0,0,0-.37.88.92.92,0,0,0,.28.68A1.09,1.09,0,0,0,69.7,13.27Z" transform="translate(-0.64 -2.61)"/><path d="M78,4.27V6.34h1.41V8H78v4.3a1,1,0,0,0,.2.7.73.73,0,0,0,.54.21,1.47,1.47,0,0,0,.31,0l.29-.06.2,1.65a6,6,0,0,1-.67.17,3.8,3.8,0,0,1-.7.06,2.36,2.36,0,0,1-1.79-.65,2.84,2.84,0,0,1-.63-2.05V8H74.55V6.34h1.21V4.27Z" transform="translate(-0.64 -2.61)"/><path d="M80.5,10.49a4.61,4.61,0,0,1,1-3.1,4.09,4.09,0,0,1,5.79,0,4.59,4.59,0,0,1,1,3.1v.17a4.52,4.52,0,0,1-1,3.1,4.08,4.08,0,0,1-5.78,0,4.53,4.53,0,0,1-1-3.1Zm2.25.16a3.72,3.72,0,0,0,.4,1.86,1.38,1.38,0,0,0,1.29.69,1.37,1.37,0,0,0,1.28-.7,3.68,3.68,0,0,0,.4-1.85v-.16a3.54,3.54,0,0,0-.41-1.83,1.51,1.51,0,0,0-2.56,0,3.68,3.68,0,0,0-.4,1.83Z" transform="translate(-0.64 -2.61)"/><path d="M94.15,8.3l-.83,0a1.47,1.47,0,0,0-.82.21,1.35,1.35,0,0,0-.5.6V14.8H89.76V6.34h2.09L92,7.59a2.74,2.74,0,0,1,.76-1,1.66,1.66,0,0,1,1.07-.37,1.58,1.58,0,0,1,.32,0l.29.06Z" transform="translate(-0.64 -2.61)"/><path d="M135,128.72v4.12h-2.25V121.47h4.47a4.38,4.38,0,0,1,3,1,3.67,3.67,0,0,1,0,5.26,4.42,4.42,0,0,1-3,1Zm0-1.76h2.22a1.84,1.84,0,0,0,1.43-.52,1.88,1.88,0,0,0,.48-1.32,2,2,0,0,0-.48-1.36,1.83,1.83,0,0,0-1.43-.53H135Z" transform="translate(-0.64 -2.61)" fill="#307ebc"/><path d="M142.46,128.54a4.61,4.61,0,0,1,1-3.1,4.06,4.06,0,0,1,5.78,0,4.53,4.53,0,0,1,1.05,3.1v.16a4.6,4.6,0,0,1-1,3.11,4.08,4.08,0,0,1-5.78,0,4.56,4.56,0,0,1-1-3.11Zm2.25.16a3.65,3.65,0,0,0,.4,1.85,1.53,1.53,0,0,0,2.57,0,3.7,3.7,0,0,0,.4-1.85v-.17a3.57,3.57,0,0,0-.41-1.83,1.5,1.5,0,0,0-2.56,0,3.63,3.63,0,0,0-.4,1.82Z" transform="translate(-0.64 -2.61)" fill="#307ebc"/><path d="M154.09,132.84h-2.25V120.66h2.25Z" transform="translate(-0.64 -2.61)" fill="#307ebc"/><path d="M158.3,132.84h-2.25V120.66h2.25Z" transform="translate(-0.64 -2.61)" fill="#307ebc"/><path d="M174.17,348H166.5v-1.5l3.63-3.94a8.94,8.94,0,0,0,1.12-1.54,2.54,2.54,0,0,0,.33-1.17,1.76,1.76,0,0,0-.38-1.18,1.33,1.33,0,0,0-1.08-.46,1.38,1.38,0,0,0-1.18.54,2.31,2.31,0,0,0-.41,1.43h-2.19v-.05a3.45,3.45,0,0,1,1-2.61,3.75,3.75,0,0,1,2.8-1.06,3.86,3.86,0,0,1,2.72.91,3.16,3.16,0,0,1,1,2.44,3.45,3.45,0,0,1-.55,1.9,20.07,20.07,0,0,1-1.85,2.29l-2,2.2,0,0h4.72Z" transform="translate(-0.64 -2.61)" fill="#307ebc"/><path d="M89.05,315.59H85.88v9.62H83.63v-9.62H80.47v-1.76h8.58Z" transform="translate(-0.64 -2.61)" fill="#307ebc"/><path d="M89.78,320.9a4.57,4.57,0,0,1,1-3.09,3.58,3.58,0,0,1,2.88-1.21,3.64,3.64,0,0,1,2.9,1.2,4.55,4.55,0,0,1,1.05,3.1v.17a4.53,4.53,0,0,1-1.05,3.1,3.6,3.6,0,0,1-2.88,1.2,3.64,3.64,0,0,1-2.9-1.2,4.57,4.57,0,0,1-1-3.1Zm2.24.16a3.83,3.83,0,0,0,.4,1.86,1.4,1.4,0,0,0,1.3.7,1.36,1.36,0,0,0,1.27-.71,3.65,3.65,0,0,0,.41-1.85v-.16a3.65,3.65,0,0,0-.41-1.83,1.51,1.51,0,0,0-2.56,0A3.7,3.7,0,0,0,92,320.9Z" transform="translate(-0.64 -2.61)" fill="#307ebc"/><path d="M106.17,320.48h-4.7v4.73H99.22V313.83H107v1.76h-5.49v3.13h4.7Z" transform="translate(-0.64 -2.61)" fill="#307ebc"/><path d="M119.17,319.25h-6.91v-1.79h6.91Zm0,3.37h-6.91v-1.79h6.91Z" transform="translate(-0.64 -2.61)" fill="#307ebc"/><path d="M92.46,198.53v4.54H90.21V191.7h4.23a4.6,4.6,0,0,1,3,.88,3,3,0,0,1,1.08,2.48,2.52,2.52,0,0,1-.45,1.51,3.21,3.21,0,0,1-1.33,1,2.36,2.36,0,0,1,1.43,1,3.16,3.16,0,0,1,.43,1.72v.83a4,4,0,0,0,.13,1,1.37,1.37,0,0,0,.43.77v.16H96.84a1.28,1.28,0,0,1-.4-.83,7.31,7.31,0,0,1-.09-1.11v-.81a1.78,1.78,0,0,0-.46-1.32,1.68,1.68,0,0,0-1.29-.47Zm0-1.76H94.4a2.15,2.15,0,0,0,1.42-.41,1.5,1.5,0,0,0,.46-1.2,1.65,1.65,0,0,0-.46-1.24,1.89,1.89,0,0,0-1.38-.47h-2Z" transform="translate(-0.64 -2.61)" fill="#307ebc"/><path d="M104.15,203.24a3.7,3.7,0,0,1-2.88-1.18,4.21,4.21,0,0,1-1.08-3v-.31a4.7,4.7,0,0,1,1-3.11,3.77,3.77,0,0,1,5.36-.18,4,4,0,0,1,.93,2.79v1.25h-5v0a2.18,2.18,0,0,0,.55,1.37,1.71,1.71,0,0,0,1.33.54,4.33,4.33,0,0,0,1.24-.15,6.94,6.94,0,0,0,1.08-.48l.61,1.41a4.26,4.26,0,0,1-1.33.7A5.92,5.92,0,0,1,104.15,203.24Zm-.2-7a1.18,1.18,0,0,0-1,.48,2.53,2.53,0,0,0-.44,1.28l0,0h2.76v-.21a1.82,1.82,0,0,0-.34-1.16A1.22,1.22,0,0,0,104,196.22Z" transform="translate(-0.64 -2.61)" fill="#307ebc"/><path d="M113.32,200.74a.78.78,0,0,0-.36-.64,3.39,3.39,0,0,0-1.32-.49,5.33,5.33,0,0,1-2.24-.9,2,2,0,0,1-.75-1.63,2.34,2.34,0,0,1,.91-1.86,3.67,3.67,0,0,1,2.42-.76,4,4,0,0,1,2.54.76,2.27,2.27,0,0,1,.91,1.91l0,.05h-2.17a1.15,1.15,0,0,0-.32-.83,1.52,1.52,0,0,0-1.8,0,.89.89,0,0,0-.31.68.77.77,0,0,0,.33.64,3.51,3.51,0,0,0,1.33.44,5.41,5.41,0,0,1,2.29.92,2,2,0,0,1,.74,1.67,2.23,2.23,0,0,1-1,1.86,4.07,4.07,0,0,1-2.54.73,3.82,3.82,0,0,1-2.63-.86,2.4,2.4,0,0,1-.93-1.95l0-.05h2.06a1.17,1.17,0,0,0,.44,1,1.79,1.79,0,0,0,1.08.3,1.55,1.55,0,0,0,1-.25A.81.81,0,0,0,113.32,200.74Z" transform="translate(-0.64 -2.61)" fill="#307ebc"/><path d="M124.48,199.08a4.92,4.92,0,0,1-.86,3,2.82,2.82,0,0,1-2.39,1.14,2.71,2.71,0,0,1-1.16-.25,2.31,2.31,0,0,1-.87-.72v4H117v-11.7h2l.13,1a2.79,2.79,0,0,1,.89-.86,2.4,2.4,0,0,1,1.22-.3,2.76,2.76,0,0,1,2.4,1.23,5.54,5.54,0,0,1,.86,3.23Zm-2.25-.18a4.08,4.08,0,0,0-.4-1.94,1.28,1.28,0,0,0-1.2-.74,1.7,1.7,0,0,0-.87.21,1.48,1.48,0,0,0-.56.6v3.71a1.35,1.35,0,0,0,.56.55,1.86,1.86,0,0,0,.89.19,1.28,1.28,0,0,0,1.19-.65,3.4,3.4,0,0,0,.39-1.76Z" transform="translate(-0.64 -2.61)" fill="#307ebc"/><path d="M125.52,198.77a4.54,4.54,0,0,1,1-3.1,4.06,4.06,0,0,1,5.78,0,4.53,4.53,0,0,1,1,3.1v.16a4.56,4.56,0,0,1-1,3.11,4.08,4.08,0,0,1-5.78,0,4.6,4.6,0,0,1-1-3.11Zm2.24.16a3.65,3.65,0,0,0,.4,1.85,1.53,1.53,0,0,0,2.57,0,3.7,3.7,0,0,0,.41-1.85v-.17a3.67,3.67,0,0,0-.41-1.83,1.38,1.38,0,0,0-1.29-.71,1.35,1.35,0,0,0-1.27.71,3.7,3.7,0,0,0-.41,1.83Z" transform="translate(-0.64 -2.61)" fill="#307ebc"/><path d="M136.83,194.62l.1,1.21a3.1,3.1,0,0,1,1-1,2.61,2.61,0,0,1,1.36-.36,2.5,2.5,0,0,1,2,.81,3.76,3.76,0,0,1,.7,2.52v5.28h-2.25v-5.28a1.75,1.75,0,0,0-.34-1.21,1.36,1.36,0,0,0-1-.36,1.63,1.63,0,0,0-.8.19,1.55,1.55,0,0,0-.59.52v6.14h-2.25v-8.45Z" transform="translate(-0.64 -2.61)" fill="#307ebc"/><path d="M148.19,200.74a.8.8,0,0,0-.35-.64,3.52,3.52,0,0,0-1.33-.49,5.33,5.33,0,0,1-2.24-.9,2,2,0,0,1-.75-1.63,2.34,2.34,0,0,1,.91-1.86,3.67,3.67,0,0,1,2.42-.76,4,4,0,0,1,2.54.76,2.27,2.27,0,0,1,.91,1.91l0,.05h-2.17a1.15,1.15,0,0,0-.32-.83,1.52,1.52,0,0,0-1.8,0,.89.89,0,0,0-.31.68.77.77,0,0,0,.33.64,3.51,3.51,0,0,0,1.33.44,5.41,5.41,0,0,1,2.29.92,2,2,0,0,1,.75,1.67,2.23,2.23,0,0,1-1,1.86,4.07,4.07,0,0,1-2.54.73,3.82,3.82,0,0,1-2.63-.86,2.4,2.4,0,0,1-.93-1.95l0-.05h2.06a1.17,1.17,0,0,0,.44,1,1.79,1.79,0,0,0,1.08.3,1.55,1.55,0,0,0,1-.25A.79.79,0,0,0,148.19,200.74Z" transform="translate(-0.64 -2.61)" fill="#307ebc"/><path d="M155.52,203.24a3.71,3.71,0,0,1-2.89-1.18,4.21,4.21,0,0,1-1.08-3v-.31a4.65,4.65,0,0,1,1-3.11,3.77,3.77,0,0,1,5.36-.18,4,4,0,0,1,.93,2.79v1.25h-5v0a2.18,2.18,0,0,0,.55,1.37,1.7,1.7,0,0,0,1.33.54,4.38,4.38,0,0,0,1.24-.15,7.38,7.38,0,0,0,1.08-.48l.6,1.41a4.15,4.15,0,0,1-1.33.7A5.86,5.86,0,0,1,155.52,203.24Zm-.2-7a1.17,1.17,0,0,0-1,.48,2.63,2.63,0,0,0-.45,1.28l0,0h2.76v-.21a1.88,1.88,0,0,0-.34-1.16A1.22,1.22,0,0,0,155.32,196.22Z" transform="translate(-0.64 -2.61)" fill="#307ebc"/><path d="M91,218.74a10.71,10.71,0,0,1,1.17-5.2,6,6,0,0,1,2.66-2.77h0l.41,1.14a5.82,5.82,0,0,0-1.7,2.47,12,12,0,0,0-.68,4.35v.2a11.88,11.88,0,0,0,.68,4.35,6,6,0,0,0,1.7,2.49l-.41,1.11h0a5.88,5.88,0,0,1-2.66-2.76A10.7,10.7,0,0,1,91,218.91Z" transform="translate(-0.64 -2.61)" fill="#307ebc"/><path d="M98.76,212.89H96.5v-1.71h2.26Zm0,10.48H96.5v-8.46h2.26Z" transform="translate(-0.64 -2.61)" fill="#307ebc"/><path d="M102.66,214.91l.1,1.22a3,3,0,0,1,1-1,2.63,2.63,0,0,1,1.36-.36,2.53,2.53,0,0,1,2,.8,3.78,3.78,0,0,1,.71,2.53v5.28h-2.26v-5.29a1.77,1.77,0,0,0-.34-1.21,1.35,1.35,0,0,0-1-.35,1.77,1.77,0,0,0-.8.18,1.72,1.72,0,0,0-.59.52v6.15h-2.25v-8.46Z" transform="translate(-0.64 -2.61)" fill="#307ebc"/><path d="M113,221.77a1.29,1.29,0,0,0,1-.35,1.25,1.25,0,0,0,.36-.94h2l0,0a2.67,2.67,0,0,1-1,2.15,4,4,0,0,1-5.32-.33,4.62,4.62,0,0,1-1-3.07V219a4.63,4.63,0,0,1,1-3.07,3.53,3.53,0,0,1,2.87-1.2,3.47,3.47,0,0,1,2.48.89,3,3,0,0,1,.92,2.34l0,0h-2A1.7,1.7,0,0,0,114,217a1.21,1.21,0,0,0-1-.43,1.29,1.29,0,0,0-1.26.7,3.83,3.83,0,0,0-.37,1.81v.23a3.79,3.79,0,0,0,.37,1.82A1.31,1.31,0,0,0,113,221.77Z" transform="translate(-0.64 -2.61)" fill="#307ebc"/><path d="M120.05,223.37H117.8V211.18h2.25Z" transform="translate(-0.64 -2.61)" fill="#307ebc"/><path d="M124.4,223.37h-2.25v-2h2.25Z" transform="translate(-0.64 -2.61)" fill="#307ebc"/><path d="M169.58,218.91a10.43,10.43,0,0,1-1.22,5.17,6,6,0,0,1-2.72,2.8h0l-.42-1.11a5.81,5.81,0,0,0,1.69-2.48,11.75,11.75,0,0,0,.69-4.36v-.2a11.59,11.59,0,0,0-.7-4.35,6.07,6.07,0,0,0-1.68-2.5l.42-1.11h0a6.06,6.06,0,0,1,2.72,2.81,10.42,10.42,0,0,1,1.22,5.16Z" transform="translate(-0.64 -2.61)" fill="#307ebc"/><path d="M9.23,178.48H6.05v9.62H3.8v-9.62H.64v-1.76H9.23Z" transform="translate(-0.64 -2.61)" fill="#307ebc"/><path d="M12.57,191H10.74v-9.91h1.83Z" transform="translate(-0.64 -2.61)" fill="#307ebc"/><path d="M13.79,187.46a3.76,3.76,0,0,1,.84-2.52A3,3,0,0,1,17,184a3,3,0,0,1,2.36,1,3.68,3.68,0,0,1,.85,2.52v.13a3.69,3.69,0,0,1-.85,2.53,2.92,2.92,0,0,1-2.34,1,2.94,2.94,0,0,1-2.35-1,3.69,3.69,0,0,1-.85-2.53Zm1.82.13a3.06,3.06,0,0,0,.32,1.5,1.13,1.13,0,0,0,1.06.57,1.1,1.1,0,0,0,1-.57,3,3,0,0,0,.33-1.5v-.13A3,3,0,0,0,18,186a1.11,1.11,0,0,0-1.05-.58,1.09,1.09,0,0,0-1,.58,3,3,0,0,0-.33,1.49Z" transform="translate(-0.64 -2.61)" fill="#307ebc"/><path d="M21,187.46a3.76,3.76,0,0,1,.84-2.52,3,3,0,0,1,2.34-1,3,3,0,0,1,2.36,1,3.68,3.68,0,0,1,.85,2.52v.13a3.69,3.69,0,0,1-.85,2.53,2.92,2.92,0,0,1-2.34,1,2.94,2.94,0,0,1-2.35-1,3.69,3.69,0,0,1-.85-2.53Zm1.82.13a3.06,3.06,0,0,0,.32,1.5,1.13,1.13,0,0,0,1.06.57,1.09,1.09,0,0,0,1-.57,3,3,0,0,0,.33-1.5v-.13a3,3,0,0,0-.33-1.49,1.11,1.11,0,0,0-1.05-.58,1.09,1.09,0,0,0-1,.58,3,3,0,0,0-.33,1.49Z" transform="translate(-0.64 -2.61)" fill="#307ebc"/><path d="M34.66,187.71a4,4,0,0,1-.69,2.45,2.29,2.29,0,0,1-1.94.93,2.18,2.18,0,0,1-1-.2,1.91,1.91,0,0,1-.71-.59v3.3H28.55v-9.51H30.2l.1.81a2.09,2.09,0,0,1,.73-.69,1.86,1.86,0,0,1,1-.25,2.25,2.25,0,0,1,2,1,4.51,4.51,0,0,1,.69,2.62Zm-1.83-.14a3.31,3.31,0,0,0-.32-1.58,1,1,0,0,0-1-.6,1.43,1.43,0,0,0-.71.17,1.28,1.28,0,0,0-.46.49v3a1.11,1.11,0,0,0,.46.45,1.57,1.57,0,0,0,.72.15,1,1,0,0,0,1-.53,2.76,2.76,0,0,0,.31-1.43Z" transform="translate(-0.64 -2.61)" fill="#307ebc"/><path d="M134.2,306.38H131V316h-2.25v-9.62h-3.16v-1.76h8.58Z" transform="translate(-0.64 -2.61)" fill="#307ebc"/><path d="M137.54,318.86h-1.83V309h1.83Z" transform="translate(-0.64 -2.61)" fill="#307ebc"/><path d="M138.76,315.36a3.71,3.71,0,0,1,.85-2.52,3.3,3.3,0,0,1,4.69,0,3.69,3.69,0,0,1,.86,2.52v.13a3.74,3.74,0,0,1-.85,2.53,3.33,3.33,0,0,1-4.7,0,3.74,3.74,0,0,1-.85-2.53Zm1.83.13a2.93,2.93,0,0,0,.32,1.5,1.24,1.24,0,0,0,2.09,0,3,3,0,0,0,.33-1.5v-.13a3,3,0,0,0-.33-1.49,1.12,1.12,0,0,0-1.05-.58,1.11,1.11,0,0,0-1,.58,3,3,0,0,0-.32,1.49Z" transform="translate(-0.64 -2.61)" fill="#307ebc"/><path d="M146,315.36a3.71,3.71,0,0,1,.85-2.52,2.93,2.93,0,0,1,2.34-1,3,3,0,0,1,2.36,1,3.73,3.73,0,0,1,.85,2.52v.13a3.74,3.74,0,0,1-.85,2.53,3.33,3.33,0,0,1-4.7,0,3.74,3.74,0,0,1-.85-2.53Zm1.83.13a2.93,2.93,0,0,0,.32,1.5,1.24,1.24,0,0,0,2.09,0,3,3,0,0,0,.33-1.5v-.13a3,3,0,0,0-.33-1.49,1.12,1.12,0,0,0-1.05-.58,1.11,1.11,0,0,0-1,.58,3,3,0,0,0-.32,1.49Z" transform="translate(-0.64 -2.61)" fill="#307ebc"/><path d="M159.64,315.61a3.92,3.92,0,0,1-.7,2.45A2.28,2.28,0,0,1,157,319a2.24,2.24,0,0,1-.95-.2,1.88,1.88,0,0,1-.7-.59v3.3h-1.83V312h1.65l.11.81a2.15,2.15,0,0,1,.72-.69,1.87,1.87,0,0,1,1-.25,2.22,2.22,0,0,1,1.95,1,4.44,4.44,0,0,1,.7,2.62Zm-1.83-.14a3.44,3.44,0,0,0-.32-1.58,1,1,0,0,0-1-.6,1.39,1.39,0,0,0-.7.17,1.21,1.21,0,0,0-.46.49v3a1.05,1.05,0,0,0,.46.45,1.52,1.52,0,0,0,.71.15,1,1,0,0,0,1-.53,2.76,2.76,0,0,0,.31-1.43Z" transform="translate(-0.64 -2.61)" fill="#307ebc"/><path d="M172.9,311.3h-8.35v-1.78h8.35Z" transform="translate(-0.64 -2.61)" fill="#307ebc"/><path d="M187,306.38h-3.18V316h-2.25v-9.62h-3.16v-1.76H187Z" transform="translate(-0.64 -2.61)" fill="#307ebc"/><path d="M190.9,313.58l-.67,0a1.17,1.17,0,0,0-.67.18,1.06,1.06,0,0,0-.4.48v4.64h-1.82V312H189l.08,1a2.25,2.25,0,0,1,.62-.84,1.35,1.35,0,0,1,.87-.3l.25,0,.24.06Z" transform="translate(-0.64 -2.61)" fill="#307ebc"/><path d="M194.83,319a3,3,0,0,1-2.34-.95,3.42,3.42,0,0,1-.88-2.42v-.25a3.81,3.81,0,0,1,.83-2.52,2.77,2.77,0,0,1,2.23-1,2.74,2.74,0,0,1,2.13.84,3.28,3.28,0,0,1,.76,2.27v1h-4.05v0a1.77,1.77,0,0,0,.45,1.12,1.37,1.37,0,0,0,1.08.43,3.5,3.5,0,0,0,1-.12,4.33,4.33,0,0,0,.88-.39l.5,1.14a3.38,3.38,0,0,1-1.09.57A4.61,4.61,0,0,1,194.83,319Zm-.16-5.7a.94.94,0,0,0-.8.39,2.11,2.11,0,0,0-.37,1l0,0h2.24v-.16a1.53,1.53,0,0,0-.27-.95A1,1,0,0,0,194.67,313.29Z" transform="translate(-0.64 -2.61)" fill="#307ebc"/><path d="M204.73,315.61a4,4,0,0,1-.69,2.45,2.29,2.29,0,0,1-1.94.93,2.21,2.21,0,0,1-.95-.2,2,2,0,0,1-.71-.59v3.3h-1.82V312h1.65l.1.81a2.17,2.17,0,0,1,.73-.69,1.86,1.86,0,0,1,1-.25,2.25,2.25,0,0,1,2,1,4.51,4.51,0,0,1,.69,2.62Zm-1.83-.14a3.45,3.45,0,0,0-.31-1.58,1.05,1.05,0,0,0-1-.6,1.43,1.43,0,0,0-.71.17,1.36,1.36,0,0,0-.46.49v3a1.17,1.17,0,0,0,.46.45,1.59,1.59,0,0,0,.72.15,1,1,0,0,0,1-.53,2.76,2.76,0,0,0,.31-1.43Z" transform="translate(-0.64 -2.61)" fill="#307ebc"/><path d="M207.78,318.86H206V309h1.83Z" transform="translate(-0.64 -2.61)" fill="#307ebc"/><path d="M211.73,316l.07.38h0l1.3-4.37h2l-2.74,7.9a3.82,3.82,0,0,1-.79,1.24,2,2,0,0,1-1.48.5,1.91,1.91,0,0,1-.43,0l-.48-.1.21-1.36.18,0h.17a1,1,0,0,0,.69-.22,1.43,1.43,0,0,0,.38-.57l.21-.53-2.4-6.86h2Z" transform="translate(-0.64 -2.61)" fill="#307ebc"/><path d="M258.61,178.48h-3.17v9.62h-2.26v-9.62H250v-1.76h8.59Z" transform="translate(-0.64 -2.61)" fill="#307ebc"/><path d="M261.91,185.68l-.67,0a1.26,1.26,0,0,0-.67.17,1.14,1.14,0,0,0-.4.49V191h-1.82v-6.87h1.7l.08,1a2.18,2.18,0,0,1,.61-.84,1.4,1.4,0,0,1,.88-.3l.25,0,.24.06Z" transform="translate(-0.64 -2.61)" fill="#307ebc"/><path d="M265.84,191.09a3,3,0,0,1-2.34-1,3.42,3.42,0,0,1-.88-2.42v-.25a3.81,3.81,0,0,1,.83-2.52,3.06,3.06,0,0,1,4.36-.15,3.27,3.27,0,0,1,.75,2.27v1h-4l0,0a1.89,1.89,0,0,0,.45,1.12,1.4,1.4,0,0,0,1.08.43,3.58,3.58,0,0,0,1-.12,4.33,4.33,0,0,0,.88-.39l.49,1.14a3.22,3.22,0,0,1-1.08.57A4.66,4.66,0,0,1,265.84,191.09Zm-.16-5.7a.94.94,0,0,0-.8.39,2.11,2.11,0,0,0-.37,1l0,0h2.24v-.16a1.53,1.53,0,0,0-.27-.95A1,1,0,0,0,265.68,185.39Z" transform="translate(-0.64 -2.61)" fill="#307ebc"/><path d="M275.74,187.71a4,4,0,0,1-.69,2.45,2.31,2.31,0,0,1-1.95.93,2.16,2.16,0,0,1-.94-.2,1.91,1.91,0,0,1-.71-.59v3.3h-1.82v-9.51h1.65l.1.81a2.09,2.09,0,0,1,.73-.69,1.86,1.86,0,0,1,1-.25,2.25,2.25,0,0,1,2,1,4.51,4.51,0,0,1,.69,2.62Zm-1.83-.14a3.31,3.31,0,0,0-.32-1.58,1,1,0,0,0-1-.6,1.43,1.43,0,0,0-.71.17,1.28,1.28,0,0,0-.46.49v3a1.11,1.11,0,0,0,.46.45,1.57,1.57,0,0,0,.72.15,1,1,0,0,0,1-.53,2.76,2.76,0,0,0,.31-1.43Z" transform="translate(-0.64 -2.61)" fill="#307ebc"/><path d="M278.79,191H277v-9.91h1.83Z" transform="translate(-0.64 -2.61)" fill="#307ebc"/><path d="M282.74,188.07l.07.39h0l1.3-4.37h2l-2.75,7.9a3.64,3.64,0,0,1-.78,1.24,2,2,0,0,1-1.48.5,1.91,1.91,0,0,1-.43,0l-.48-.11.21-1.35.18,0h.17a1,1,0,0,0,.69-.22,1.54,1.54,0,0,0,.38-.57L282,191l-2.41-6.86h2Z" transform="translate(-0.64 -2.61)" fill="#307ebc"/><path d="M136.58,212.81h-3.17v9.61h-2.26v-9.61H128v-1.76h8.59Z" transform="translate(-0.64 -2.61)" fill="#307ebc"/><path d="M139.88,218l-.67,0a1.17,1.17,0,0,0-.67.17,1.06,1.06,0,0,0-.4.48v4.64h-1.82v-6.87H138l.08,1a2.18,2.18,0,0,1,.61-.84,1.4,1.4,0,0,1,.88-.3,1,1,0,0,1,.25,0l.24.05Z" transform="translate(-0.64 -2.61)" fill="#307ebc"/><path d="M143.81,223.41a3,3,0,0,1-2.34-.95,3.4,3.4,0,0,1-.88-2.42v-.25a3.81,3.81,0,0,1,.83-2.52,2.71,2.71,0,0,1,2.23-1,2.76,2.76,0,0,1,2.13.83,3.29,3.29,0,0,1,.75,2.27v1h-4l0,0a1.86,1.86,0,0,0,.45,1.11A1.41,1.41,0,0,0,144,222a3.22,3.22,0,0,0,1-.13,4.33,4.33,0,0,0,.88-.39l.49,1.15a3.22,3.22,0,0,1-1.08.57A4.66,4.66,0,0,1,143.81,223.41Zm-.16-5.7a1,1,0,0,0-.81.4,2.13,2.13,0,0,0-.36,1l0,0h2.24V219a1.5,1.5,0,0,0-.27-.94A1,1,0,0,0,143.65,217.71Z" transform="translate(-0.64 -2.61)" fill="#307ebc"/><path d="M153.71,220a4,4,0,0,1-.69,2.45,2.3,2.3,0,0,1-2,.92,2,2,0,0,1-.94-.2,1.88,1.88,0,0,1-.71-.58v3.29H147.6v-9.51h1.65l.1.82a2,2,0,0,1,.73-.7,2,2,0,0,1,1-.24,2.27,2.27,0,0,1,2,1,4.53,4.53,0,0,1,.69,2.62Zm-1.83-.15a3.27,3.27,0,0,0-.32-1.57,1,1,0,0,0-1-.61,1.34,1.34,0,0,0-.71.18,1.18,1.18,0,0,0-.46.48v3a1.14,1.14,0,0,0,.46.44,1.45,1.45,0,0,0,.72.16,1,1,0,0,0,1-.53,2.78,2.78,0,0,0,.31-1.43Z" transform="translate(-0.64 -2.61)" fill="#307ebc"/><path d="M156.76,223.28h-1.83v-9.9h1.83Z" transform="translate(-0.64 -2.61)" fill="#307ebc"/><path d="M160.71,220.4l.07.38h0l1.3-4.37h2l-2.75,7.9a3.64,3.64,0,0,1-.78,1.24,2,2,0,0,1-1.48.5,2.81,2.81,0,0,1-.43,0l-.48-.11.21-1.35.18,0h.16a1,1,0,0,0,.7-.22,1.59,1.59,0,0,0,.38-.56l.21-.54-2.41-6.86h2Z" transform="translate(-0.64 -2.61)" fill="#307ebc"/><path d="M197.25,10.25V14.8H195V3.42h4.23a4.61,4.61,0,0,1,3,.89,3,3,0,0,1,1.08,2.47,2.55,2.55,0,0,1-.45,1.52,3.2,3.2,0,0,1-1.33,1,2.45,2.45,0,0,1,1.43,1,3.21,3.21,0,0,1,.43,1.72v.84a3.85,3.85,0,0,0,.13,1,1.34,1.34,0,0,0,.43.77v.17h-2.32a1.38,1.38,0,0,1-.4-.84,7.31,7.31,0,0,1-.09-1.11v-.8a1.82,1.82,0,0,0-.46-1.33,1.71,1.71,0,0,0-1.29-.47Zm0-1.76h1.94a2.15,2.15,0,0,0,1.42-.4,1.53,1.53,0,0,0,.46-1.21,1.67,1.67,0,0,0-.46-1.24,1.89,1.89,0,0,0-1.38-.46h-2Z" transform="translate(-0.64 -2.61)"/><path d="M208.94,15a3.73,3.73,0,0,1-2.88-1.17,4.22,4.22,0,0,1-1.08-3V10.5a4.67,4.67,0,0,1,1-3.1,3.77,3.77,0,0,1,5.36-.18,4,4,0,0,1,.93,2.79v1.24h-5v.05a2.2,2.2,0,0,0,.55,1.37,1.74,1.74,0,0,0,1.33.53,4.33,4.33,0,0,0,1.24-.15,5.45,5.45,0,0,0,1.08-.48l.61,1.41a4.06,4.06,0,0,1-1.33.7A5.64,5.64,0,0,1,208.94,15Zm-.2-7a1.18,1.18,0,0,0-1,.48,2.49,2.49,0,0,0-.44,1.27l0,0h2.76v-.2a1.8,1.8,0,0,0-.34-1.16A1.19,1.19,0,0,0,208.74,8Z" transform="translate(-0.64 -2.61)"/><path d="M218.11,12.47a.8.8,0,0,0-.36-.65,3.59,3.59,0,0,0-1.32-.48,5.46,5.46,0,0,1-2.24-.91,2,2,0,0,1-.75-1.63A2.33,2.33,0,0,1,214.35,7a3.62,3.62,0,0,1,2.42-.76,3.91,3.91,0,0,1,2.54.76,2.25,2.25,0,0,1,.91,1.91l0,.05H218a1.13,1.13,0,0,0-.32-.83,1.52,1.52,0,0,0-1.8-.05.87.87,0,0,0-.31.67.76.76,0,0,0,.33.64,3.47,3.47,0,0,0,1.33.45,5.29,5.29,0,0,1,2.29.92,2,2,0,0,1,.75,1.67,2.23,2.23,0,0,1-1,1.86,4.14,4.14,0,0,1-2.54.72,3.82,3.82,0,0,1-2.63-.85,2.4,2.4,0,0,1-.93-1.95l0-.05h2.06a1.16,1.16,0,0,0,.44,1,1.73,1.73,0,0,0,1.08.31,1.55,1.55,0,0,0,1-.25A.83.83,0,0,0,218.11,12.47Z" transform="translate(-0.64 -2.61)"/><path d="M229.27,10.8a4.92,4.92,0,0,1-.86,3A2.81,2.81,0,0,1,226,15a2.7,2.7,0,0,1-1.16-.24A2.43,2.43,0,0,1,224,14v4.06h-2.25V6.34h2l.13,1a2.76,2.76,0,0,1,.89-.85,2.4,2.4,0,0,1,1.22-.3,2.77,2.77,0,0,1,2.4,1.22,5.56,5.56,0,0,1,.86,3.23ZM227,10.63a4,4,0,0,0-.4-1.94,1.26,1.26,0,0,0-1.2-.74,1.7,1.7,0,0,0-.87.21,1.48,1.48,0,0,0-.56.6v3.71a1.41,1.41,0,0,0,.56.55,2,2,0,0,0,.89.18,1.26,1.26,0,0,0,1.19-.65,3.4,3.4,0,0,0,.39-1.76Z" transform="translate(-0.64 -2.61)"/><path d="M230.31,10.49a4.56,4.56,0,0,1,1-3.1,3.6,3.6,0,0,1,2.88-1.2,3.66,3.66,0,0,1,2.9,1.2,4.55,4.55,0,0,1,1.05,3.1v.17a4.53,4.53,0,0,1-1.05,3.1,4.08,4.08,0,0,1-5.78,0,4.57,4.57,0,0,1-1-3.1Zm2.24.16a3.72,3.72,0,0,0,.4,1.86,1.39,1.39,0,0,0,1.3.69,1.35,1.35,0,0,0,1.27-.7,3.67,3.67,0,0,0,.41-1.85v-.16a3.65,3.65,0,0,0-.41-1.83A1.36,1.36,0,0,0,234.23,8a1.33,1.33,0,0,0-1.27.71,3.67,3.67,0,0,0-.41,1.83Z" transform="translate(-0.64 -2.61)"/><path d="M241.62,6.34l.1,1.21a3.07,3.07,0,0,1,1-1,2.61,2.61,0,0,1,1.36-.36,2.53,2.53,0,0,1,2,.8,3.78,3.78,0,0,1,.71,2.53V14.8h-2.26V9.51a1.77,1.77,0,0,0-.34-1.21,1.35,1.35,0,0,0-1-.35,1.74,1.74,0,0,0-.8.18,1.64,1.64,0,0,0-.59.52V14.8h-2.25V6.34Z" transform="translate(-0.64 -2.61)"/><path d="M248.13,10.64A5.56,5.56,0,0,1,249,7.41a2.77,2.77,0,0,1,2.4-1.22,2.36,2.36,0,0,1,1.13.27,2.67,2.67,0,0,1,.87.78V2.61h2.26V14.8h-1.93l-.19-1a2.81,2.81,0,0,1-.93.89,2.42,2.42,0,0,1-1.22.3A2.81,2.81,0,0,1,249,13.82a4.92,4.92,0,0,1-.85-3Zm2.24.17a3.45,3.45,0,0,0,.37,1.75,1.28,1.28,0,0,0,1.2.64,1.65,1.65,0,0,0,.85-.2,1.56,1.56,0,0,0,.59-.58V8.79a1.82,1.82,0,0,0-.58-.62A1.55,1.55,0,0,0,252,8a1.27,1.27,0,0,0-1.21.74,4.37,4.37,0,0,0-.38,2Z" transform="translate(-0.64 -2.61)"/><path d="M261.08,15a3.75,3.75,0,0,1-2.89-1.17,4.21,4.21,0,0,1-1.07-3V10.5a4.67,4.67,0,0,1,1-3.1,3.77,3.77,0,0,1,5.36-.18,4,4,0,0,1,.93,2.79v1.24h-5v.05a2.2,2.2,0,0,0,.55,1.37,1.72,1.72,0,0,0,1.33.53,4.38,4.38,0,0,0,1.24-.15,5.45,5.45,0,0,0,1.08-.48l.61,1.41a4.11,4.11,0,0,1-1.34.7A5.58,5.58,0,0,1,261.08,15Zm-.2-7a1.17,1.17,0,0,0-1,.48,2.59,2.59,0,0,0-.45,1.27l0,0h2.76v-.2a1.86,1.86,0,0,0-.34-1.16A1.19,1.19,0,0,0,260.88,8Z" transform="translate(-0.64 -2.61)"/><path d="M270.13,8.3l-.83,0a1.47,1.47,0,0,0-.82.21,1.35,1.35,0,0,0-.5.6V14.8h-2.24V6.34h2.09l.1,1.25a2.74,2.74,0,0,1,.76-1,1.66,1.66,0,0,1,1.07-.37,1.58,1.58,0,0,1,.32,0l.29.06Z" transform="translate(-0.64 -2.61)"/><path d="M84.72,26.39H48.22a3.14,3.14,0,0,0-3.14,3.13V98.69a3.14,3.14,0,0,0,3.14,3.13H73.8V87.33H54.9l-4.75.07V34.52A2.46,2.46,0,0,1,52.54,32h28A2.46,2.46,0,0,1,83,34.52V87.79h4.89V29.52A3.13,3.13,0,0,0,84.72,26.39ZM66.47,91a3.8,3.8,0,1,1-3.81,3.8A3.8,3.8,0,0,1,66.47,91Z" transform="translate(-0.64 -2.61)" fill="#307ebc"/><path d="M45.08,29.52V87.79H50V34.52A2.46,2.46,0,0,1,52.36,32h28a2.46,2.46,0,0,1,2.38,2.52V87.4L78,87.33H59.13v14.49H84.72a3.13,3.13,0,0,0,3.13-3.13V29.52a3.13,3.13,0,0,0-3.13-3.13H48.22A3.14,3.14,0,0,0,45.08,29.52ZM70.27,94.84a3.81,3.81,0,1,1-3.8-3.8A3.8,3.8,0,0,1,70.27,94.84Z" transform="translate(-0.64 -2.61)" fill="#307ebc"/><path d="M61.93,63.39a1.09,1.09,0,1,0,1.56,1.53,4.83,4.83,0,0,1,3.41-1.45,4.75,4.75,0,0,1,3.42,1.37,1.1,1.1,0,0,0,1.55-1.57,7,7,0,0,0-9.94.12" transform="translate(-0.64 -2.61)"/><path d="M58.25,60a1.09,1.09,0,0,0,0,1.55,1.1,1.1,0,0,0,1.56,0,10,10,0,0,1,7.07-3A9.89,9.89,0,0,1,74,61.34a1.11,1.11,0,0,0,1.55-1.58,12,12,0,0,0-8.65-3.48A12.23,12.23,0,0,0,58.25,60" transform="translate(-0.64 -2.61)"/><path d="M66.86,51.7a16.3,16.3,0,0,1,11.75,4.72,1.1,1.1,0,0,1,0,1.56,1.09,1.09,0,0,1-1.55,0A14.13,14.13,0,0,0,66.87,53.9a14.37,14.37,0,0,0-10.16,4.34,1.1,1.1,0,0,1-1.56-1.54,16.62,16.62,0,0,1,11.71-5" transform="translate(-0.64 -2.61)"/><path d="M250.43,26.39h-36.5a3.13,3.13,0,0,0-3.13,3.13V98.69a3.13,3.13,0,0,0,3.13,3.13h25.58V87.33h-18.9l-4.75.07V34.52A2.46,2.46,0,0,1,218.25,32h28a2.45,2.45,0,0,1,2.38,2.52V87.79h4.89V29.52A3.13,3.13,0,0,0,250.43,26.39ZM232.18,91a3.8,3.8,0,1,1-3.81,3.8A3.8,3.8,0,0,1,232.18,91Z" transform="translate(-0.64 -2.61)" fill="#307ebc"/><path d="M210.8,29.52V87.79h4.88V34.52A2.46,2.46,0,0,1,218.07,32h28a2.45,2.45,0,0,1,2.38,2.52V87.4l-4.75-.07h-18.9v14.49h25.59a3.13,3.13,0,0,0,3.13-3.13V29.52a3.13,3.13,0,0,0-3.13-3.13h-36.5A3.13,3.13,0,0,0,210.8,29.52ZM236,94.84a3.81,3.81,0,1,1-3.8-3.8A3.8,3.8,0,0,1,236,94.84Z" transform="translate(-0.64 -2.61)" fill="#307ebc"/><path d="M227.64,63.39a1.1,1.1,0,0,0,0,1.55,1.08,1.08,0,0,0,1.55,0,4.83,4.83,0,0,1,3.41-1.45A4.73,4.73,0,0,1,236,64.84a1.1,1.1,0,0,0,1.55-1.57,6.93,6.93,0,0,0-5-2,7,7,0,0,0-5,2.12" transform="translate(-0.64 -2.61)"/><path d="M224,60a1.1,1.1,0,0,0,1.56,1.54,10,10,0,0,1,7.08-3,9.89,9.89,0,0,1,7.09,2.86,1.11,1.11,0,0,0,1.55-1.58,12,12,0,0,0-8.65-3.48A12.25,12.25,0,0,0,224,60" transform="translate(-0.64 -2.61)"/><path d="M232.58,51.7a16.28,16.28,0,0,1,11.74,4.72,1.1,1.1,0,0,1,0,1.56,1.09,1.09,0,0,1-1.55,0,14.13,14.13,0,0,0-10.19-4.09,14.37,14.37,0,0,0-10.16,4.34,1.1,1.1,0,1,1-1.56-1.54,16.65,16.65,0,0,1,11.72-5" transform="translate(-0.64 -2.61)"/><line x1="213.75" y1="326.51" x2="125.5" y2="326.51" fill="none" stroke="#307ebc" stroke-miterlimit="10" stroke-width="2"/><line x1="53.12" y1="249.61" x2="53.12" y2="136.57" fill="none" stroke="#5c5e63" stroke-miterlimit="10" stroke-width="2"/><path d="M53.77,261.28c1.58-4.26,4.27-9.55,7.13-12.83L53.77,251l-7.14-2.58C49.49,251.73,52.19,257,53.77,261.28Z" transform="translate(-0.64 -2.61)" fill="#5c5e63"/><path d="M53.77,130.13c1.58,4.26,4.27,9.54,7.13,12.82l-7.13-2.58L46.63,143A45.29,45.29,0,0,0,53.77,130.13Z" transform="translate(-0.64 -2.61)" fill="#5c5e63"/><polyline points="233.14 150.32 245.68 155.44 245.68 198.3" fill="none" stroke="#5c5e63" stroke-miterlimit="10" stroke-width="2"/><path d="M246.32,210c-1.58-4.26-4.28-9.55-7.13-12.82l7.13,2.58,7.13-2.58C250.59,200.41,247.9,205.7,246.32,210Z" transform="translate(-0.64 -2.61)" fill="#5c5e63"/><line x1="65.86" y1="128.99" x2="224.16" y2="149.17" fill="none" stroke="#5c5e63" stroke-miterlimit="10" stroke-width="2"/><path d="M233.78,152.93a45.63,45.63,0,0,0-13.62,5.45l3.46-6.75-1.65-7.4C224.85,147.48,229.76,150.82,233.78,152.93Z" transform="translate(-0.64 -2.61)" fill="#5c5e63"/><line x1="245.19" y1="207.35" x2="75.88" y2="255.04" fill="none" stroke="#5c5e63" stroke-miterlimit="10" stroke-width="2"/><path d="M67.81,260.1c3.67-2.67,8-6.7,10.41-10.34l-.55,7.57,4.41,6.16C78.16,261.63,72.34,260.47,67.81,260.1Z" transform="translate(-0.64 -2.61)" fill="#5c5e63"/><path d="M245,166.42" transform="translate(-0.64 -2.61)"/><rect x="59.75" y="87.03" width="12.77" height="9.25" fill="#307ebc"/><rect x="224.89" y="87.47" width="18.5" height="10.13" fill="#307ebc"/></svg>